<?xml version="1.0" standalone="no"?>
<!DOCTYPE svg PUBLIC "-//W3C//DTD SVG 20010904//EN"
 "http://www.w3.org/TR/2001/REC-SVG-20010904/DTD/svg10.dtd">
<svg version="1.0" xmlns="http://www.w3.org/2000/svg"
 width="141.000000pt" height="128.000000pt" viewBox="0 0 141.000000 128.000000"
 preserveAspectRatio="xMidYMid meet">

<g transform="translate(0.000000,128.000000) scale(0.100000,-0.100000)"
fill="#000000" stroke="none">
<path d="M0 640 l0 -640 705 0 705 0 0 640 0 640 -705 0 -705 0 0 -640z m411
484 c32 -16 59 -66 59 -109 0 -31 -3 -31 -41 -2 -28 20 -44 22 -180 25 l-149
3 0 50 0 49 140 0 c108 0 148 -4 171 -16z m645 -19 c56 -35 108 -111 118 -174
13 -84 -34 -195 -102 -239 l-23 -15 25 48 c65 122 1 271 -130 304 -23 6 -110
11 -192 11 -136 0 -152 -2 -195 -24 l-47 -23 0 39 c0 32 7 47 35 75 l34 34
214 -3 214 -3 49 -30z m96 4 c41 -21 80 -67 103 -122 19 -45 20 -147 1 -191
-20 -48 -75 -107 -121 -127 -60 -28 -74 -23 -33 11 20 17 50 58 67 92 57 114
35 235 -60 328 -37 36 -40 41 -19 35 14 -4 42 -16 62 -26z m-743 -114 c43 -22
61 -70 61 -161 l0 -79 -45 51 c-58 68 -120 94 -236 101 l-89 6 0 48 0 49 140
0 c104 0 148 -4 169 -15z m554 1 c99 -41 148 -187 86 -258 -20 -23 -20 -23
-14 -1 9 34 -12 96 -42 125 -40 38 -108 52 -213 45 -110 -7 -163 -29 -224 -93
l-46 -48 0 88 c0 87 0 88 34 122 l34 34 176 0 c126 0 186 -4 209 -14z m-587
-179 c73 -64 88 -103 92 -240 3 -74 0 -128 -7 -145 -13 -31 -49 -58 -61 -45
-5 4 -10 80 -12 168 -3 153 -4 162 -30 206 -15 25 -43 60 -63 77 -19 17 -35
33 -35 36 0 14 79 -24 116 -57z m286 6 c-109 -113 -110 -273 -1 -386 27 -28
47 -52 45 -54 -9 -9 -77 28 -114 62 -101 91 -112 243 -23 346 30 36 128 95
139 85 1 -2 -19 -26 -46 -53z m-373 -15 c66 -64 75 -96 79 -271 l4 -158 -38 3
-39 3 -5 190 c-5 173 -7 193 -27 228 -27 45 -18 48 26 5z m441 27 c0 -3 -10
-20 -22 -36 -19 -25 -23 -44 -23 -102 0 -84 21 -128 83 -171 58 -40 93 -46
258 -46 139 0 154 2 197 24 l47 23 0 -39 c0 -32 -7 -47 -34 -74 l-34 -34 -201
0 c-183 0 -205 2 -246 21 -51 24 -110 85 -131 135 -18 43 -18 145 0 188 21 51
106 140 106 111z m-471 -84 c6 -20 11 -103 11 -202 0 -162 -1 -169 -20 -169
-19 0 -20 7 -20 212 0 206 4 231 29 159z m513 -70 c37 -52 64 -61 193 -61 111
0 124 2 180 29 36 17 74 44 93 67 l31 39 1 -87 c0 -83 -2 -89 -29 -120 l-29
-33 -179 -3 c-169 -3 -180 -2 -223 20 -66 34 -103 92 -103 162 0 37 6 64 19
83 l19 28 5 -50 c3 -27 13 -61 22 -74z m-348 -366 c3 -9 -1 -18 -10 -22 -19
-7 -39 11 -30 26 10 16 33 13 40 -4z m234 -88 c3 -90 1 -97 -16 -97 -25 0 -32
33 -25 128 5 60 9 72 22 70 13 -3 17 -21 19 -101z m-448 68 c5 -14 15 -24 21
-23 21 5 20 -19 -1 -25 -15 -4 -20 -13 -20 -40 0 -29 4 -36 23 -39 12 -2 22
-9 22 -17 0 -25 -20 -22 -53 7 -30 27 -32 33 -32 95 0 53 3 67 15 67 9 0 20
-11 25 -25z m672 7 c7 -10 21 -21 31 -25 23 -9 22 -27 -3 -27 -17 0 -20 -7
-20 -40 0 -33 3 -40 20 -40 13 0 20 -7 20 -20 0 -28 -14 -25 -55 11 -32 29
-35 35 -35 88 0 73 14 91 42 53z m-539 -31 c14 8 17 6 17 -11 0 -13 -8 -24
-19 -27 -16 -4 -21 -15 -23 -52 -3 -38 -6 -46 -23 -46 -18 0 -20 8 -23 64 -3
67 7 87 38 71 9 -5 23 -4 33 1z m223 1 c19 -3 36 -58 29 -91 -9 -41 -29 -55
-70 -48 -32 5 -35 4 -35 -19 0 -17 -5 -24 -20 -24 -18 0 -20 7 -20 88 0 49 2
91 4 93 4 4 85 4 112 1z m235 -13 c11 -11 19 -30 17 -42 -2 -18 -11 -23 -52
-27 -44 -4 -47 -7 -32 -19 13 -11 22 -12 42 -2 34 15 50 4 28 -20 -23 -25 -78
-25 -104 1 -23 23 -27 78 -7 102 26 33 79 36 108 7z m260 10 c11 -5 24 -22 30
-36 12 -33 -1 -43 -61 -43 -41 0 -43 -1 -28 -17 14 -14 22 -15 43 -5 35 16 51
5 29 -19 -33 -36 -99 -23 -119 24 -29 69 40 132 106 96z m179 -9 c5 -10 10
-44 10 -74 0 -49 -2 -56 -20 -56 -18 0 -20 7 -20 54 0 36 -4 56 -13 59 -25 9
-36 -8 -39 -58 -2 -37 -7 -51 -20 -53 -13 -3 -17 8 -20 63 -1 36 0 69 4 73 4
4 30 8 57 9 41 2 53 -1 61 -17z m-812 -57 c-3 -60 -5 -68 -23 -68 -18 0 -20 8
-23 68 -3 66 -3 67 23 67 26 0 26 -1 23 -67z"/>
<path d="M507 238 c-31 -17 -15 -78 20 -78 17 0 35 37 28 59 -7 24 -26 32 -48
19z"/>
<path d="M730 235 c-11 -13 -8 -15 19 -15 33 0 42 14 15 24 -21 8 -20 8 -34
-9z"/>
<path d="M1000 235 c-11 -13 -8 -15 19 -15 33 0 42 14 15 24 -21 8 -20 8 -34
-9z"/>
</g>
</svg>
